<?xml version="1.0" encoding="utf-8"?>
<!-- Generator: Adobe Illustrator 18.1.1, SVG Export Plug-In . SVG Version: 6.00 Build 0)  -->
<svg version="1.1" id="Layer_1" xmlns="http://www.w3.org/2000/svg" xmlns:xlink="http://www.w3.org/1999/xlink" x="0px" y="0px"
	 width="315.4px" height="151.7px" viewBox="-237 231.3 315.4 151.7" enable-background="new -237 231.3 315.4 151.7"
	 xml:space="preserve">
<path fill="#FFFFFF" d="M-154.2,293.7v2.2l0,0C-154.3,295.1-154.3,294.4-154.2,293.7z"/>
<path fill="#FFFFFF" d="M-123.3,323v1.2l0,0C-123.3,323.7-123.3,323.4-123.3,323z"/>
<path fill="#FFFFFF" d="M29.3,248.8c-6.4,0-12.5,1.2-18.1,3.5v-4.5H-20v75.7l-0.1,9c0,9.9-8,18-18,18c-9.9,0-18-8-18-18l-0.1-10
	v-19.3h-31v29.4h0.1c0.1,27,22,48.9,49.1,48.9c20.6,0,39.3-12.7,46.5-30.8c1.6-5,1.7-8.3,1.7-8.3c5.6,2.2,12.7,4.5,19.1,4.5
	c27.1,0,49.1-22,49.1-49.1C78.4,270.8,56.4,248.8,29.3,248.8z M29.3,315.8c-9.9,0-18-8-18-18s8.1-18,18-18s18,8.1,18,18
	S39.2,315.8,29.3,315.8z"/>
<path fill="#FFFFFF" d="M-123.3,323v1.2l0,0C-123.3,323.7-123.3,323.4-123.3,323z"/>
<g>
	<path fill="#FFFFFF" d="M-56.4,291.2c-2.4-24.9-23.3-44.4-48.8-44.4c-6.3,0-12.4,1.2-18,3.4v-3.1h-31v85.8h-0.1
		c-0.1,9.8-8.1,17.8-18,17.8s-17.9-7.9-18-17.8l0,0v-56.1h15.2v-30h-15.2v-15.5h-31v15.5h-14.4v30h14.4v58.6
		c1.3,25.9,22.8,46.5,49.1,46.5c26.7,0,48.5-21.3,49.1-47.9c0-0.4,0-0.8,0-1.2v-37.1l0,0c0-9.9,8-18,18-18c8.3,0,15.3,5.6,17.3,13.3
		h31.4L-56.4,291.2L-56.4,291.2z M-123.3,324.1L-123.3,324.1c0-0.4,0-0.8,0-1.2V324.1z"/>
</g>
</svg>
